# xmcd
#
# Track frame offsets: 
#        150
#        17139
#        33116
#        44038
#        57594
#        69052
#        86951
#        114516
#
# Disc length: 3792 seconds
#
# Revision: 0
# Processed by: cddbd v1.5.2PL0 Copyright (c) Steve Scherf et al.
# Submitted via: ExactAudioCopyFreeDBPlugin 1.0
#
DISCID=680ece08
DTITLE=Prinz Pi - !Donnerwetter! Bonus Disc
DYEAR=2006
DGENRE=Rap
TTITLE0=Es geht los
TTITLE1=Bestandsaufnahme
TTITLE2=Hotel
TTITLE3=Rostbraun feat. Bina
TTITLE4=Down Syndrom
TTITLE5=Geld macht dich krank feat. Bina
TTITLE6=Dem Licht entgegen feat. Esko
TTITLE7=Unbekannter Titel
EXTD=
EXTT0=
EXTT1=
EXTT2=
EXTT3=
EXTT4=
EXTT5=
EXTT6=
EXTT7=
PLAYORDER=
